<svg xmlns="http://www.w3.org/2000/svg" width="256" height="50" viewBox="380 320 900 300" version="1.1">
	<path d="M 114.289 398.442 C 100.085 401.681, 85.392 412.137, 77.172 424.855 C 71.043 434.338, 68.861 441.654, 68.263 454.727 C 67.800 464.872, 68.003 466.764, 70.369 474.354 C 72.875 482.392, 78.653 492.566, 82.888 496.398 C 84.835 498.161, 85.054 498.034, 92.538 490.812 L 100.195 483.423 96.664 479.196 C 90.960 472.370, 88.734 465.108, 89.206 454.873 C 89.539 447.657, 90.132 445.174, 92.833 439.688 C 96.622 431.991, 103.447 425.386, 111.808 421.326 C 116.849 418.878, 118.650 418.559, 127.548 418.531 C 137.206 418.501, 137.897 418.649, 145.333 422.322 C 152.276 425.752, 155.452 428.490, 176.285 449.004 L 199.500 471.865 206.780 464.682 L 214.060 457.500 190.280 433.886 C 177.201 420.898, 163.971 408.611, 160.881 406.581 C 148.449 398.416, 129.172 395.048, 114.289 398.442 M 205.118 399.043 C 201.058 400.107, 195.670 402.131, 193.146 403.542 C 188.163 406.327, 180.054 412.194, 180.074 413 C 180.081 413.275, 183.121 416.797, 186.829 420.827 L 193.571 428.154 198.889 424.575 C 206.199 419.656, 213.731 417.604, 221.949 418.293 C 236.815 419.539, 248.043 427.235, 254.723 440.758 C 258.302 448.002, 258.499 448.905, 258.482 457.952 C 258.452 473.511, 257.659 474.718, 227.722 504.751 L 202.551 530.001 210.009 537.509 L 217.467 545.017 240.810 521.759 C 253.648 508.966, 266.164 495.713, 268.623 492.308 C 274.690 483.903, 277.774 475.831, 279.185 464.658 C 280.198 456.635, 280.131 454.063, 278.720 446.901 C 273.905 422.464, 255.418 403.428, 231.792 398.581 C 221.774 396.526, 214.231 396.657, 205.118 399.043 M 123.170 437.992 C 116.443 439.584, 109.687 447.020, 107.943 454.752 C 107.015 458.866, 108.354 466.734, 110.475 469.635 C 111.743 471.369, 112.290 471.048, 118.819 464.745 C 122.661 461.035, 126.633 458, 127.644 458 C 128.702 458, 138.272 466.782, 150.192 478.692 L 170.901 499.383 176.701 493.968 C 179.890 490.989, 182.891 487.922, 183.369 487.153 C 184.010 486.120, 178.379 479.866, 161.869 463.273 C 135.733 437.007, 133.501 435.549, 123.170 437.992 M 212.575 438.525 C 210.416 439.345, 208.431 440.236, 208.163 440.504 C 207.894 440.772, 210.448 443.880, 213.837 447.409 C 218.377 452.137, 220 454.561, 220 456.613 C 220 458.907, 216.118 463.295, 198.001 481.477 L 176.002 503.555 182.777 510.279 L 189.553 517.003 213.185 493.251 C 229.188 477.166, 237.330 468.250, 238.408 465.628 C 243.713 452.723, 235.151 438.158, 221.785 437.352 C 218.743 437.168, 214.834 437.666, 212.575 438.525 M 362.601 441.527 C 343.137 446.458, 326.237 462.724, 320.584 481.968 C 314.412 502.980, 320.239 526.256, 335.508 541.580 C 346.799 552.911, 359.503 558, 376.500 558 C 391.157 558, 402.944 553.824, 413 545.069 L 417.500 541.150 410.627 534.176 L 403.753 527.201 399.244 530.644 C 393.101 535.333, 390.471 536.572, 383.698 537.968 C 367.772 541.250, 350.904 532.455, 343.612 517.068 C 340.690 510.902, 340.500 509.797, 340.500 499 C 340.500 488.637, 340.763 486.939, 343.160 481.825 C 346.852 473.951, 353.038 467.599, 360.680 463.837 C 366.366 461.038, 368.105 460.669, 375.802 460.634 C 383.223 460.599, 385.375 460.996, 390.458 463.336 C 393.735 464.845, 397.867 467.187, 399.641 468.540 C 401.415 469.893, 403.234 470.975, 403.683 470.945 C 404.132 470.915, 406.934 467.703, 409.908 463.807 C 414.149 458.253, 415.097 456.377, 414.303 455.112 C 412.427 452.125, 401.137 445.326, 394.292 443.062 C 385.475 440.145, 370.851 439.437, 362.601 441.527 M 463 442.341 C 443.844 448.045, 430.668 460.801, 423.928 480.166 C 418.181 496.675, 420.556 517.266, 429.867 531.672 C 437.428 543.371, 447.832 551.280, 461.223 555.511 C 472.384 559.036, 486.649 559.026, 497.860 555.484 C 532.560 544.523, 548.199 502.084, 529.731 469 C 525.347 461.146, 513.761 450.141, 505.698 446.172 C 492.684 439.765, 476.519 438.315, 463 442.341 M 552 498.999 L 552 556.200 577.250 555.731 C 604.326 555.228, 607.968 554.673, 618.869 549.389 C 622.399 547.678, 627.308 543.831, 632.025 539.080 C 643.554 527.467, 648 516.364, 648 499.184 C 648 482.261, 643.133 469.926, 632.103 458.897 C 628.242 455.035, 622.951 450.994, 619.425 449.215 C 608.085 443.490, 603.790 442.791, 576.750 442.272 L 552 441.798 552 498.999 M 663 499 L 663 556 673.500 556 L 684 556 684 499 L 684 442 673.500 442 L 663 442 663 499 M 704 480.364 C 704 501.951, 704.441 521.050, 705.008 524.040 C 707.582 537.616, 717.035 549.327, 729.609 554.520 C 735.497 556.952, 738.207 557.428, 748.226 557.788 C 758.075 558.142, 761.053 557.875, 766.828 556.121 C 778.775 552.492, 787.610 544.223, 792.866 531.752 L 795.500 525.500 795.810 483.750 L 796.120 442 785.560 442 L 775 442 774.994 479.750 C 774.991 503.808, 774.595 518.918, 773.904 521.409 C 770.992 531.895, 762.264 538.377, 751.003 538.416 C 739.894 538.455, 732.354 534.308, 727.691 525.595 C 725.557 521.607, 725.492 520.457, 725.207 481.750 L 724.914 442 714.457 442 L 704 442 704 480.364 M 814 499 L 814 556 824.500 556 L 835 556 835.018 518.250 L 835.036 480.500 837.875 485.500 C 841.231 491.410, 857.876 518.785, 865.724 531.300 L 871.242 540.100 875.871 539.800 L 880.500 539.500 898 510.386 L 915.500 481.272 915.762 518.671 L 916.024 556.070 926.262 555.785 L 936.500 555.500 936.500 499 L 936.500 442.500 926.022 442.500 L 915.545 442.500 895.623 475.906 C 877.288 506.653, 875.589 509.161, 874.285 507.406 C 873.506 506.358, 864.291 491.212, 853.808 473.750 L 834.747 442 824.374 442 L 814 442 814 499 M 467.277 462.084 C 450.815 467.300, 440.071 486.763, 443.044 505.983 C 447.150 532.531, 474.240 546.633, 497.288 534.219 C 510.569 527.066, 518.860 509.345, 516.142 493.917 C 513.286 477.703, 502.549 465.201, 488.289 461.487 C 480.739 459.520, 474.839 459.688, 467.277 462.084 M 573.414 461.917 C 573.186 462.146, 573 479.133, 573 499.667 L 573 537 582.553 537 C 595.198 537, 604.427 534.818, 611.702 530.108 C 621.545 523.737, 627 513.046, 627 500.130 C 627 482.231, 617.008 467.882, 601.500 463.510 C 596.927 462.221, 574.384 460.942, 573.414 461.917 M 103.892 488.750 C 80.504 512.386, 75.236 519.022, 71.157 529.985 C 67.865 538.834, 67.054 554.756, 69.424 564.012 C 75.703 588.538, 95.768 606.558, 120.566 609.944 C 136.113 612.066, 150.693 608.164, 164.331 598.230 L 169.162 594.710 161.935 587.435 L 154.708 580.159 150.933 582.542 C 139.645 589.668, 123.220 591.021, 111.782 585.767 C 103.842 582.119, 96.662 575.090, 92.741 567.126 C 89.704 560.956, 89.501 559.880, 89.515 550.021 C 89.540 533.197, 90.104 532.345, 124.198 497.558 L 141.896 479.500 135.225 472.750 C 131.556 469.038, 128.070 466, 127.479 466 C 126.888 466, 116.274 476.238, 103.892 488.750 M 132.835 515.750 C 120.952 527.712, 110.563 538.850, 109.748 540.500 C 107.332 545.395, 106.873 550.260, 108.362 555.208 C 111.313 565.012, 119.022 571, 128.694 571 C 133.637 571, 141 568.732, 141 567.210 C 141 566.790, 137.850 563.320, 134 559.500 C 129.940 555.471, 127 551.706, 127 550.535 C 127 549.242, 134.634 540.870, 148.250 527.230 L 169.500 505.943 163 500.015 C 159.425 496.755, 156.036 494.067, 155.470 494.044 C 154.903 494.020, 144.718 503.788, 132.835 515.750 M 254.106 516.948 L 246.711 523.799 249.786 527.090 C 251.478 528.900, 254.113 532.882, 255.643 535.940 C 258.052 540.757, 258.429 542.702, 258.462 550.500 C 258.496 558.524, 258.166 560.205, 255.418 566.003 C 251.504 574.263, 244.771 581.003, 236.239 585.203 C 229.892 588.328, 228.966 588.500, 218.521 588.500 C 208.156 588.500, 207.090 588.306, 200.622 585.243 C 194.591 582.386, 190.953 579.218, 171.058 559.493 C 158.581 547.122, 147.938 537, 147.407 537 C 146.876 537, 143.530 539.939, 139.971 543.531 L 133.500 550.063 159 575.388 C 180.911 597.148, 185.415 601.152, 191 603.835 C 200.319 608.311, 208.020 610, 219.105 610 C 235.876 610, 249.966 604.102, 262.039 592.030 C 273.160 580.909, 278.601 569.191, 279.624 554.156 C 280.352 543.462, 278.458 534.567, 273.407 524.955 C 269.994 518.459, 263.579 509.948, 262.172 510.048 C 261.802 510.074, 258.172 513.179, 254.106 516.948 M 167.202 517.296 L 160.961 523.593 183.731 546.100 C 207.782 569.876, 209.348 571, 218.398 571 C 229.254 571, 239.920 560.291, 239.978 549.333 C 239.990 547.041, 239.107 543.084, 238.017 540.539 C 235.585 534.866, 235.130 535.027, 225.727 544.907 C 222.015 548.808, 218.220 552, 217.293 552 C 216.367 552, 206.346 542.775, 195.024 531.500 C 183.702 520.225, 174.215 511, 173.941 511 C 173.666 511, 170.634 513.833, 167.202 517.296" stroke="none" fill="#ffffff" fill-rule="evenodd"/>
</svg>